<svg id="Layer_1" data-name="Layer 1" xmlns="http://www.w3.org/2000/svg" viewBox="0 0 680.71 878.33" width="680.71" height="878.33">
  <defs>
    <style>
      .cls-1 {
        letter-spacing: -.04em;
      }

      .cls-2 {
        letter-spacing: -.04em;
      }

      .cls-3 {
        letter-spacing: 0em;
      }

      .cls-4 {
        letter-spacing: 0em;
      }

      .cls-5 {
        letter-spacing: 0em;
      }

      .cls-6 {
        letter-spacing: 0em;
      }

      .cls-7 {
        letter-spacing: -.04em;
      }

      .cls-8 {
        fill: #00a651;
      }

      .cls-8, .cls-9, .cls-10, .cls-11, .cls-12, .cls-13 {
        stroke: #231f20;
        stroke-miterlimit: 10;
      }

      .cls-9 {
        fill: #f7922d;
      }

      .cls-10 {
        fill: #ffdd74;
      }

      .cls-11 {
        fill: #39b54a;
      }

      .cls-12 {
        fill: #f9a44d;
      }

      .cls-14 {
        letter-spacing: -.03em;
      }

      .cls-15 {
        letter-spacing: 0em;
      }

      .cls-16 {
        letter-spacing: -.02em;
      }

      .cls-17 {
        fill: #231f20;
        font-family: MyriadPro-Regular, 'Myriad Pro';
        font-size: 115px;
      }

      .cls-18 {
        letter-spacing: 0em;
      }

      .cls-13 {
        fill: none;
      }

      .cls-19 {
        letter-spacing: 0em;
      }

      .cls-20 {
        letter-spacing: 0em;
      }

      .cls-21 {
        letter-spacing: -.07em;
      }

      .cls-22 {
        letter-spacing: -.03em;
      }
    </style>
  </defs>
  <path class="cls-13" d="m148.45,14.49c-7.87,46.94.43,94.85,4.67,142.25,3.62,40.41,4.27,81.02,4.18,121.59-.42,192.64-17.59,386.11,5.15,577.4" />
  <path class="cls-12" d="m642.57,754.28c0,.29-.01.58-.02.87-.47,18.55-.33,36.68,3.46,54.9,3.17,15.24-.06,31.09-2.78,46.38-14.64,1.15-29.32,1.82-44.01,2.01-7.73.1-26.1,1.56-32.03-4.99-.05-.06-.1-.12-.16-.18-5.31-6.22-3.99-23.9-4.81-31.88-2.8-27.27-4.03-54.98.59-82.13,2.06-12.12,5.28-24.18,5.05-36.47-.26-13.69-4.78-26.88-8.18-40.14-8.42-32.86-10.05-67.45-4.77-100.96,3.08-19.52,8.42-39.88,2.04-58.58-2.88-8.46-8.02-15.99-11.07-24.39-3.67-10.1-4.18-21.03-4.66-31.76-2.27-51.29-4.53-102.72-.95-153.93,1.47-21.03,3.92-42.2,1.35-63.12-1.76-14.28-7.58-27.62-7.37-42.24.27-19.14,2.64-37.59,1.24-56.89-1.81-24.76-5.92-49.26-9.32-73.83-1.59-11.52-5.15-25.06-4.2-36.68.98-12.1,8.85-6.84,18.94-6.8,45.6.18,91.08,1.73,136.93,1.75-15.57,5.59-21.93,23.96-24.84,40.24-6.31,35.26-5.91,71.32-5.59,107.14,1.21,138.41.77,276.84-1.3,415.24-1.1,73.4-6.52,147.39.62,220.47.61-38.25,1.21-76.5,1.82-114.75" />
  <path class="cls-11" d="m166.28,855.46c-5.91-27.98,5.27-56.79,3.89-85.35-1.04-21.43-9.13-42.17-9.05-63.62.14-33.16,19.78-64.62,16.4-97.6-1.23-12.04-5.5-23.54-8.21-35.34-3.19-13.9-4.21-28.18-5.21-42.41-3.54-49.98-7.08-99.99-7.58-150.09-.26-26.15.31-52.35,3.21-78.34,1.85-16.57,4.65-33.19,3.35-49.81-1.55-19.75-8.79-38.52-14.68-57.43-5.67-18.2-17.97-47.91-14.76-67.07,1.36-8.09,6.98-17.03,8.97-25.48,2.31-9.82,3.81-19.83,4.69-29.88,1.66-18.96,1.03-39.61,12.37-54.9" />
  <path class="cls-8" d="m9.76,803.73c.54.33,1.08.66,1.63.99-.41-.68-.68-1.47-.7-2.39-.02-.82-.04-1.63-.06-2.45-.27,1.29-.56,2.57-.86,3.85Z" />
  <path class="cls-8" d="m29.42,653.12c.04,16.92.7,33.81,1.35,50.71,0-.24,0-.48,0-.72.25-20.37.66-40.84-.31-61.2-.32.99-.65,1.98-.98,2.97-.05,2.75-.07,5.5-.07,8.24Z" />
  <path class="cls-8" d="m3.08,731.07c-.01-3.99-.08-7.98-.14-11.98-2.32,25.11-3.36,50.34-1.46,75.39,3.7-19.43,4.1-39.49,3.7-59.53-1.23-.84-2.1-2.17-2.1-3.89Z" />
  <path class="cls-8" d="m129.57,1.88c.15-.01.29-.03.44-.05-6.76-1.21-13.65-1.63-20.53-1.12-1.34.1-2.67.24-4,.42,8.02.4,16.07.7,24.1.74Z" />
  <path class="cls-9" d="m175.1,697.22c-4.24-17.86-9.98-35.56-10.84-53.9-.97-20.63,4.3-41.03,5.17-61.66,1.21-28.64-6.08-57.07-5.78-85.74.3-28.83,8.27-57.11,9.47-85.93,1.44-34.71-6.95-69.03-9.23-103.69-2.07-31.3.85-62.55,4.43-93.78-.39-15.35-.17-30.81,1.25-46.12l-7.67-145.73c-5.19-3.97-10.76-7.5-16.61-10.47-8.4.66-16.83.93-25.28.93-5.29.52-10.57.8-15.66,1.02-12.23.54-25.52.76-37.68-2.15-8.15,4.8-15.3,11.16-20.64,18.89,1.31,1.43,1.9,3.53.76,5.73-6.4,12.33-7.35,25.54-6.4,39.19.92,13.35,2.4,26.46,2.31,39.87-.2,29.37-2.21,58.42-5.3,87.62-.86,8.07-1.58,16.15-2.21,24.24.94,72.96,1.88,145.93,2.82,218.89.73,56.47,1.27,114.06-11.13,168.79,3.63,29.56,3.03,59.47,2.67,89.26-.11,8.79-.13,17.58-.19,26.36.02.21.06.42.05.65-.01.95-.04,1.91-.08,2.86-.07,9.5-.19,18.98-.5,28.46,2.21.16,4.26,1.71,4.38,4.79.98,25.96,2.79,51.92,1.9,77.91-.01.39-.06.75-.14,1.09,7.42,3.56,15.23,6.38,23.13,8.45,27.78,7.27,56.96,6.48,85.66,5.65,6.39-.19,13-.43,18.74-3.24,12.27-6.02,16.37-21.28,18.29-34.81,5.81-41.01,3.87-83.11-5.69-123.42Z" />
  <path class="cls-8" d="m21.72,805.81c.01-2.46.03-4.93.04-7.39-.05-.01-.11-.03-.16-.04-.33,1.76-.68,3.52-1.1,5.27-.66,2.75-2.96,3.79-5.18,3.53,2.16,1.38,4.29,2.81,6.38,4.3,0-1.89,0-3.78.02-5.67Z" />
  <path class="cls-8" d="m21.67,824.42c-4.02-3.55-8.49-6.67-13.12-9.62,3.79,5.28,8.21,10.09,13.12,14.4,0-1.59,0-3.19,0-4.78Z" />
  <path class="cls-10" d="m169.53,737.72c-5.55,24.5-7.57,49.64-5.99,74.58.17,2.75.36,5.62-.91,8.12-1.63,3.19-5.34,5.15-7.2,8.24-2.32,3.87-1.16,8.93,1.99,12.25s12.11,7.97,16.9,8.57c-1.58-.2-1.33-53.42-1.41-56.5-.51-20.42-2.25-41.17-1.23-61.57.95-19-9.72-34.76-14.42-53.26-.79-3.1-1.52-6.28-3.28-9.04-1.79-2.8-4.53-4.98-6.7-7.55s-3.83-5.86-2.9-9c.82-2.77,3.55-5.59,2.05-8.1-6.46-10.84-4.16-24.85-1.7-36.48,3.34-15.82,5.05-30.81,5.22-46.97.12-12.15.25-24.31.26-36.46.03-28.22-.52-56.43-1.07-84.64-.16-8.31-.33-16.63-.49-24.94-.39-19.96-.78-39.91-1.17-59.87-.75-38.16-1.49-76.34-.27-114.5.91-28.47,2.92-56.93,2.51-85.4-.23-16.06-1.22-32.09-2.21-48.12-1.57-25.32-3.14-50.65-4.7-75.97-.55-8.85-.34-19.25,7.5-24.55,53.07,2.41,106.23.98,159.34.73,26.55-.13,53.11,0,79.63,1.08,24.31.99,48.45-4.41,73.16-4.65,16.17-.16,83.64-8.49,84.52,11.47.28,6.44-4.37,15.25-5.38,21.9-1.19,7.85-1.68,15.77-1.71,23.69-.06,15.46,1.71,30.98,5.28,46.07,22.4,94.61-9.13,193.04-2.99,289.72,2.13,33.57,8.8,66.73,13.75,100.05,16.7,112.3,13.92,226.23,11.11,339.61-.1,3.98-.28,8.22-2.76,11.52-1.76,2.34-4.47,3.92-7.15,5.36-62.54,33.66-140.69,25.95-212.53,17.17-68.19-8.34-136.38-16.67-204.57-25.01,3.19-3.49,6.39-6.97,9.58-10.46" />
  <text class="cls-17" transform="translate(173.48 223.26) scale(.51 1)">
    <tspan class="cls-14" x="0" y="0">F</tspan>
    <tspan class="cls-19" x="53.02" y="0">r</tspan>
    <tspan x="89.47" y="0">om</tspan>
    <tspan class="cls-2" x="248.52" y="0"></tspan>
    <tspan class="cls-18" x="268.18" y="0">T</tspan>
    <tspan class="cls-5" x="324.53" y="0">he </tspan>
    <tspan class="cls-15" x="470.35" y="0">R</tspan>
    <tspan x="533.37" y="0">i</tspan>
    <tspan class="cls-20" x="560.28" y="0">v</tspan>
    <tspan class="cls-4" x="614.44" y="0">er </tspan>
    <tspan x="0" y="138" xml:space="preserve">   </tspan>
    <tspan class="cls-1" x="73.14" y="138"></tspan>
    <tspan class="cls-21" x="92.8" y="138">T</tspan>
    <tspan x="141.79" y="138">o</tspan>
    <tspan class="cls-1" x="204.93" y="138"></tspan>
    <tspan class="cls-18" x="224.59" y="138">T</tspan>
    <tspan x="280.94" y="138">he </tspan>
    <tspan class="cls-6" x="426.76" y="138">S</tspan>
    <tspan x="484.14" y="138">ea</tspan>
    <tspan x="0" y="276" xml:space="preserve">      </tspan>
    <tspan class="cls-14" x="146.27" y="276">P</tspan>
    <tspan x="204.46" y="276">alestine </tspan>
    <tspan x="0" y="414" xml:space="preserve">   </tspan>
    <tspan class="cls-7" x="73.14" y="414"></tspan>
    <tspan class="cls-16" x="93.38" y="414">W</tspan>
    <tspan x="188.83" y="414">ill </tspan>
    <tspan class="cls-3" x="294.39" y="414">B</tspan>
    <tspan x="357.18" y="414">e </tspan>
    <tspan class="cls-22" x="439.17" y="414">F</tspan>
    <tspan class="cls-19" x="492.19" y="414">r</tspan>
    <tspan x="528.65" y="414">ee </tspan>
  </text>
  <text />
</svg>