<?xml version="1.0" standalone="no"?>
<!DOCTYPE svg PUBLIC "-//W3C//DTD SVG 20010904//EN"
 "http://www.w3.org/TR/2001/REC-SVG-20010904/DTD/svg10.dtd">
<svg version="1.0" xmlns="http://www.w3.org/2000/svg"
 width="681.000000pt" height="879.000000pt" viewBox="0 0 681.000000 879.000000"
 preserveAspectRatio="xMidYMid meet">

<g transform="translate(0.000000,879.000000) scale(0.100000,-0.100000)"
fill="#000000" stroke="none">
<path d="M1075 8779 c-15 -6 -9 -8 25 -9 25 -1 86 -3 135 -5 65 -3 83 -1 66 6
-31 12 -200 19 -226 8z"/>
<path d="M4735 8760 l-70 -6 65 -2 c36 -1 72 3 80 8 8 5 11 9 5 8 -5 -1 -41
-4 -80 -8z"/>
<path d="M4933 8763 c53 -2 141 -2 195 0 53 1 9 3 -98 3 -107 0 -151 -2 -97
-3z"/>
<path d="M4525 8750 l-70 -6 65 -1 c36 0 79 3 95 7 26 7 27 8 5 7 -14 0 -56
-3 -95 -7z"/>
<path d="M5253 8753 c9 -2 25 -2 35 0 9 3 1 5 -18 5 -19 0 -27 -2 -17 -5z"/>
<path d="M4390 8740 l-45 -7 42 -1 c23 -1 45 3 48 8 3 6 5 9 3 8 -2 0 -23 -4
-48 -8z"/>
<path d="M5358 8731 c52 -18 102 -55 102 -75 0 -13 -12 -13 712 -22 l567 -6
-53 -49 c-95 -86 -140 -202 -176 -449 -38 -261 -40 -382 -39 -2260 0 -1732 -9
-2802 -30 -3485 -6 -165 -11 -577 -13 -915 -3 -611 -3 -616 21 -759 23 -133
24 -152 13 -255 -7 -62 -17 -137 -23 -168 -10 -48 -15 -57 -38 -62 -14 -3
-156 -9 -316 -12 -310 -7 -352 -3 -401 39 -28 24 -32 50 -16 109 5 21 6 35 1
32 -5 -3 -9 -16 -9 -29 0 -60 -124 -138 -350 -220 -52 -18 -89 -34 -82 -35 26
-1 210 74 312 126 69 36 106 51 109 43 9 -27 55 -58 104 -70 56 -15 204 -16
467 -4 133 6 167 8 211 14 7 1 22 78 37 181 12 82 6 254 -12 345 -16 83 -36
457 -24 445 3 -3 9 -63 13 -135 4 -71 8 -141 10 -155 2 -14 4 -40 4 -59 1 -19
4 -31 8 -28 7 8 10 126 16 717 3 268 1 356 -3 240 -4 -102 -8 -318 -10 -480
-1 -218 -4 -287 -12 -265 -13 37 -16 1084 -5 1475 4 151 10 340 12 420 12 418
18 1465 20 3115 1 1012 5 1865 9 1895 39 318 60 419 105 514 40 83 95 144 155
172 l51 24 -215 0 c-118 1 -303 3 -410 6 -107 2 -309 6 -448 7 l-253 3 -22 27
c-24 28 -99 67 -132 66 -11 0 4 -8 33 -18z"/>
<path d="M1543 8718 c7 -4 68 -7 137 -6 139 1 121 6 -42 10 -58 2 -101 0 -95
-4z"/>
<path d="M4190 8720 l-45 -7 42 -1 c23 -1 45 3 48 8 3 6 5 9 3 8 -2 0 -23 -4
-48 -8z"/>
<path d="M4268 8723 c12 -2 32 -2 45 0 12 2 2 4 -23 4 -25 0 -35 -2 -22 -4z"/>
<path d="M1480 8706 c-19 -19 -85 -24 -420 -32 -188 -4 -294 -3 -334 5 -58 11
-61 10 -107 -20 -27 -17 -73 -57 -103 -89 -46 -51 -54 -65 -53 -97 0 -21 -13
-69 -29 -108 l-29 -70 4 -215 c9 -543 5 -883 -14 -1035 -2 -16 -7 -75 -10
-130 -4 -55 -9 -103 -11 -106 -21 -37 -24 -549 -9 -1619 15 -1076 12 -1752 -9
-1925 -2 -16 -7 -64 -10 -105 -4 -41 -9 -86 -11 -100 -2 -14 -7 -45 -10 -70
-11 -85 -25 -168 -43 -256 -13 -65 -15 -101 -9 -134 5 -25 11 -355 13 -734 4
-664 5 -689 24 -705 17 -14 20 -36 26 -196 4 -99 8 -202 9 -230 2 -27 3 -129
4 -226 l1 -176 92 -36 c97 -36 238 -72 323 -82 28 -3 82 -10 120 -14 96 -12
565 -11 645 1 36 6 78 17 93 25 15 7 32 11 37 8 6 -3 10 0 10 8 0 21 33 47 61
48 19 1 20 2 5 6 -13 3 -15 7 -7 12 9 6 9 135 1 562 -14 793 -10 724 -59 864
-23 66 -60 174 -82 240 -33 102 -46 129 -89 178 -52 61 -58 80 -38 134 10 28
9 42 -10 95 -29 83 -29 170 2 334 48 255 50 296 49 904 -1 316 -8 908 -17
1315 -20 930 -20 1197 0 1665 21 485 15 811 -26 1450 -35 551 -34 579 17 640
26 31 28 40 3 16z m-610 -43 c91 -2 257 0 370 5 113 5 206 9 207 8 0 -1 -6
-28 -14 -61 -15 -56 -14 -92 17 -570 38 -589 47 -986 31 -1305 -22 -436 -24
-925 -6 -1785 10 -462 18 -1083 18 -1380 1 -573 -3 -639 -53 -879 -27 -131
-26 -238 1 -312 18 -48 20 -63 10 -89 -21 -60 -14 -87 40 -151 46 -53 57 -76
105 -219 30 -88 67 -194 81 -235 l26 -75 14 -640 c11 -541 11 -641 -1 -653
-11 -12 -21 -10 -63 12 -64 32 -103 77 -103 120 0 24 12 46 45 85 l45 53 0
201 c0 201 15 376 45 531 8 44 13 81 11 84 -7 6 -15 -29 -37 -163 -16 -98 -22
-194 -26 -394 l-6 -263 -43 -49 c-67 -76 -56 -143 34 -200 25 -16 39 -29 31
-29 -24 0 -224 23 -228 27 -2 1 15 27 39 55 l43 53 -56 -55 c-68 -65 -71 -62
98 -80 148 -15 158 -20 115 -50 -59 -42 -112 -50 -360 -57 -258 -6 -448 5
-615 37 -94 19 -234 61 -296 90 l-26 12 -7 311 c-11 428 -16 505 -39 522 -17
12 -18 47 -16 601 1 397 -2 638 -11 739 -11 141 -11 156 9 254 26 129 57 364
71 541 21 269 22 698 6 1960 -17 1282 -17 1286 3 1485 46 456 54 706 40 1325
l-4 205 29 75 c15 41 29 91 30 110 2 47 43 100 125 162 48 36 71 47 86 43 11
-4 94 -9 185 -12z"/>
<path d="M1910 8708 c56 -8 580 -8 675 1 39 3 -108 6 -325 6 -217 0 -374 -3
-350 -7z"/>
<path d="M2988 8713 c117 -2 306 -2 420 0 114 1 18 2 -213 2 -231 0 -324 -1
-207 -2z"/>
<path d="M3692 8708 c33 -9 426 -10 431 0 3 4 -98 7 -225 7 -126 0 -219 -3
-206 -7z"/>
<path d="M5466 8608 c-2 -7 -16 -53 -30 -103 -16 -53 -28 -125 -31 -175 l-4
-85 9 85 c6 47 20 117 31 155 27 86 38 135 33 135 -3 0 -6 -6 -8 -12z"/>
<path d="M5403 8175 c0 -33 2 -45 4 -27 2 18 2 45 0 60 -2 15 -4 0 -4 -33z"/>
<path d="M5406 8000 c3 -52 23 -183 44 -290 41 -204 70 -405 71 -500 0 -30 4
-64 8 -75 27 -65 -22 342 -65 555 -20 96 -42 227 -50 290 l-13 115 5 -95z"/>
<path d="M3420 6960 l0 -410 25 0 25 0 0 183 c0 197 8 246 46 284 23 23 27 24
47 10 38 -25 46 -70 46 -279 l1 -198 25 0 25 0 0 205 c0 224 -9 291 -47 335
-40 48 -88 37 -122 -28 l-20 -37 -1 173 0 172 -25 0 -25 0 0 -410z"/>
<path d="M4183 7333 l-23 -4 0 -390 0 -389 25 0 25 0 0 165 c0 181 2 186 57
168 47 -16 62 -49 78 -173 22 -161 21 -160 50 -160 29 0 29 -9 6 158 -12 79
-27 149 -39 174 l-21 41 24 31 c32 43 49 125 42 208 -13 148 -79 199 -224 171z
m140 -103 c49 -58 45 -193 -8 -246 -18 -17 -35 -24 -65 -24 l-40 0 0 143 c0
79 3 147 7 150 3 4 23 7 44 7 29 0 43 -7 62 -30z"/>
<path d="M1780 6940 l0 -390 25 0 25 0 0 175 0 175 75 0 75 0 0 40 0 40 -75 0
-76 0 3 133 3 132 78 3 77 3 0 39 0 40 -105 0 -105 0 0 -390z"/>
<path d="M3100 7290 l0 -39 58 -3 57 -3 3 -347 2 -348 25 0 25 0 0 350 0 350
60 0 60 0 0 40 0 40 -145 0 -145 0 0 -40z"/>
<path d="M4491 7316 c-7 -8 -11 -34 -9 -58 2 -33 7 -44 22 -46 23 -5 36 14 36
51 0 31 -16 67 -29 67 -5 0 -14 -6 -20 -14z"/>
<path d="M2130 7100 c-11 -11 -22 -31 -26 -45 -9 -34 -24 -21 -24 21 0 27 -4
34 -20 34 -20 0 -20 -7 -20 -280 l0 -280 24 0 24 0 4 193 c3 168 6 197 23 232
13 26 28 41 43 43 19 3 22 9 22 53 0 55 -15 64 -50 29z"/>
<path d="M2296 7099 c-76 -59 -107 -246 -70 -410 37 -161 158 -199 224 -70 58
116 48 377 -18 457 -40 48 -93 57 -136 23z m110 -107 c43 -85 39 -263 -8 -339
-27 -46 -70 -46 -98 -1 -41 69 -49 242 -14 327 21 51 34 62 68 59 25 -2 35
-11 52 -46z"/>
<path d="M2640 7100 c-12 -12 -26 -33 -33 -48 -11 -27 -11 -27 -15 16 -2 34
-7 42 -23 42 -18 0 -19 -9 -19 -280 l0 -280 24 0 25 0 3 208 c3 184 5 211 22
239 25 41 44 48 67 27 32 -29 39 -81 39 -281 l0 -193 25 0 25 0 0 195 c0 156
3 203 16 235 22 53 49 69 76 43 30 -31 38 -84 38 -285 l0 -188 25 0 25 0 0
199 c0 259 -14 328 -72 365 -27 17 -71 -5 -93 -47 -23 -43 -31 -46 -39 -14
-15 60 -78 85 -116 47z"/>
<path d="M3807 7094 c-84 -84 -103 -369 -32 -490 28 -48 70 -69 121 -61 49 8
64 23 64 64 0 30 -3 34 -17 28 -38 -17 -83 -17 -108 -1 -25 17 -55 96 -55 148
l0 28 101 0 102 0 -5 83 c-7 103 -24 161 -59 198 -35 37 -77 39 -112 3z m82
-63 c22 -22 41 -80 41 -123 l0 -28 -76 0 -76 0 6 38 c12 65 27 102 49 117 28
19 33 19 56 -4z"/>
<path d="M4947 7094 c-84 -84 -103 -369 -32 -490 28 -48 70 -69 121 -61 49 8
64 23 64 64 0 30 -3 34 -17 28 -38 -17 -83 -17 -108 -1 -25 17 -55 96 -55 148
l0 28 101 0 102 0 -5 83 c-7 103 -24 161 -59 198 -35 37 -77 39 -112 3z m82
-63 c22 -22 41 -80 41 -123 l0 -28 -76 0 -76 0 6 38 c12 65 27 102 49 117 28
19 33 19 56 -4z"/>
<path d="M5280 7100 c-11 -11 -22 -31 -26 -45 -9 -34 -24 -21 -24 21 0 27 -4
34 -20 34 -20 0 -20 -7 -20 -280 l0 -280 24 0 24 0 4 193 c3 168 6 197 23 232
13 26 28 41 43 43 19 3 22 9 22 53 0 55 -15 64 -50 29z"/>
<path d="M4480 6830 l0 -280 25 0 25 0 0 280 0 280 -25 0 -25 0 0 -280z"/>
<path d="M4591 7103 c0 -5 24 -129 52 -278 52 -268 53 -270 78 -273 l26 -3 55
278 55 278 -24 3 c-14 2 -26 2 -28 0 -2 -2 -20 -102 -41 -222 -29 -164 -40
-212 -45 -190 -4 16 -22 116 -40 222 l-33 192 -28 0 c-15 0 -28 -3 -27 -7z"/>
<path d="M5534 6945 c0 -88 2 -123 3 -77 2 46 2 118 0 160 -1 42 -3 5 -3 -83z"/>
<path d="M5526 6729 c-3 -17 -5 -61 -4 -98 1 -61 2 -59 8 29 8 101 7 121 -4
69z"/>
<path d="M5516 6545 c-3 -9 -5 -40 -4 -68 l1 -52 7 65 c7 70 6 80 -4 55z"/>
<path d="M5506 6405 c-3 -9 -5 -35 -5 -58 2 -40 2 -39 9 13 7 59 6 71 -4 45z"/>
<path d="M5494 6286 c-3 -8 -4 -31 -2 -52 3 -36 4 -35 8 14 5 53 4 63 -6 38z"/>
<path d="M5484 6176 c-3 -8 -4 -31 -2 -52 3 -36 4 -35 8 14 5 53 4 63 -6 38z"/>
<path d="M5474 6066 c-3 -8 -4 -29 -2 -48 3 -29 4 -27 8 15 5 48 3 58 -6 33z"/>
<path d="M3200 5580 l0 -410 25 0 25 0 0 183 c0 197 8 246 46 284 23 23 27 24
47 10 38 -25 46 -70 46 -279 l1 -198 25 0 25 0 0 205 c0 224 -9 291 -47 335
-40 48 -88 37 -122 -28 l-20 -37 -1 173 0 172 -25 0 -25 0 0 -410z"/>
<path d="M5465 5968 c-8 -26 -27 -299 -21 -305 3 -4 6 9 7 28 0 19 6 91 13
162 11 118 11 146 1 115z"/>
<path d="M4008 5945 c-64 -36 -96 -179 -64 -289 14 -48 28 -68 86 -124 75 -74
88 -105 76 -188 -13 -101 -72 -127 -153 -68 -25 18 -23 23 -27 -62 -1 -21 59
-54 97 -54 80 0 129 71 135 197 7 123 -7 161 -94 253 -60 65 -74 85 -79 121
-8 57 12 119 46 138 23 13 29 12 59 -2 45 -23 47 -22 52 18 3 25 -1 40 -13 51
-25 23 -89 27 -121 9z"/>
<path d="M2210 5910 l0 -39 58 -3 57 -3 3 -347 2 -348 25 0 25 0 0 350 0 350
60 0 60 0 0 40 0 40 -145 0 -145 0 0 -40z"/>
<path d="M2880 5910 l0 -39 58 -3 57 -3 3 -347 2 -348 25 0 25 0 0 350 0 350
60 0 60 0 0 40 0 40 -145 0 -145 0 0 -40z"/>
<path d="M2556 5719 c-76 -59 -107 -246 -70 -410 37 -161 158 -199 224 -70 58
116 48 377 -18 457 -40 48 -93 57 -136 23z m110 -107 c43 -85 39 -263 -8 -339
-27 -46 -70 -46 -98 -1 -41 69 -49 242 -14 327 21 51 34 62 68 59 25 -2 35
-11 52 -46z"/>
<path d="M3577 5714 c-84 -84 -103 -369 -32 -490 28 -48 70 -69 121 -61 49 8
64 23 64 64 0 30 -3 34 -17 28 -38 -17 -83 -17 -108 -1 -25 17 -55 96 -55 148
l0 28 101 0 102 0 -5 83 c-7 103 -24 161 -59 198 -35 37 -77 39 -112 3z m82
-63 c22 -22 41 -80 41 -123 l0 -28 -76 0 -76 0 6 38 c12 65 27 102 49 117 28
19 33 19 56 -4z"/>
<path d="M4287 5714 c-84 -84 -103 -369 -32 -490 28 -48 70 -69 121 -61 49 8
64 23 64 64 0 30 -3 34 -17 28 -38 -17 -83 -17 -108 -1 -25 17 -55 96 -55 148
l0 28 101 0 102 0 -5 83 c-7 103 -24 161 -59 198 -35 37 -77 39 -112 3z m82
-63 c22 -22 41 -80 41 -123 l0 -28 -76 0 -76 0 6 38 c12 65 27 102 49 117 28
19 33 19 56 -4z"/>
<path d="M4553 5720 c-33 -20 -37 -33 -24 -78 l6 -24 19 21 c46 50 104 13 113
-73 l5 -43 -42 -7 c-53 -8 -103 -56 -119 -111 -23 -83 -10 -179 31 -222 30
-32 64 -29 98 7 34 36 40 37 40 5 0 -18 5 -25 20 -25 19 0 20 7 20 205 0 232
-10 296 -50 337 -34 33 -72 36 -117 8z m117 -332 c-1 -82 -29 -148 -63 -148
-31 0 -46 18 -54 63 -11 70 37 147 93 147 23 0 24 -3 24 -62z"/>
<path d="M5436 5635 c-3 -9 -5 -38 -5 -63 2 -46 2 -46 9 13 7 64 6 76 -4 50z"/>
<path d="M5426 5505 c-3 -9 -5 -47 -4 -83 l1 -67 7 80 c6 86 6 95 -4 70z"/>
<path d="M5416 5318 c-8 -33 -7 -431 2 -445 4 -6 7 97 7 228 0 131 -1 239 -1
239 -1 0 -4 -10 -8 -22z"/>
<path d="M5421 4788 c0 -31 2 -59 7 -61 4 -3 6 16 4 41 -5 73 -10 82 -11 20z"/>
<path d="M5431 4673 c-1 -23 3 -44 7 -47 4 -2 6 12 4 32 -5 56 -10 62 -11 15z"/>
<path d="M3090 4200 l0 -410 25 0 25 0 0 410 0 410 -25 0 -25 0 0 -410z"/>
<path d="M5441 4593 c-1 -27 34 -269 84 -578 38 -237 85 -587 85 -635 0 -16 5
-32 12 -36 6 -4 8 -3 5 3 -3 5 -11 79 -16 164 -6 85 -17 181 -25 214 -15 62
-67 380 -116 705 -15 102 -28 175 -29 163z"/>
<path d="M2543 4573 l-23 -4 0 -390 0 -389 25 0 25 0 0 149 0 148 50 5 c89 9
138 81 147 217 7 105 -10 184 -52 229 -29 32 -38 36 -91 38 -32 1 -69 0 -81
-3z m132 -97 c65 -65 54 -244 -20 -292 -13 -8 -36 -14 -52 -12 l-28 3 -3 150
c-1 82 0 155 2 162 9 23 74 16 101 -11z"/>
<path d="M3961 4556 c-7 -8 -11 -34 -9 -58 2 -33 7 -44 22 -46 23 -5 36 14 36
51 0 31 -16 67 -29 67 -5 0 -14 -6 -20 -14z"/>
<path d="M3793 4497 c-21 -9 -23 -17 -23 -79 0 -61 -2 -68 -20 -68 -17 0 -20
-7 -20 -40 0 -33 3 -40 19 -40 18 0 19 -11 23 -214 3 -200 4 -217 24 -243 16
-21 30 -28 55 -28 33 0 34 1 37 42 3 39 1 43 -19 40 -41 -4 -49 31 -49 226 l0
177 35 0 c34 0 35 1 35 40 0 39 -1 40 -35 40 l-34 0 -3 79 c-3 77 -3 78 -25
68z"/>
<path d="M2843 4340 c-33 -20 -37 -33 -24 -78 l6 -24 19 21 c46 50 104 13 113
-73 l5 -43 -42 -7 c-53 -8 -103 -56 -119 -111 -23 -83 -10 -179 31 -222 30
-32 64 -29 98 7 34 36 40 37 40 5 0 -18 5 -25 20 -25 19 0 20 7 20 205 0 232
-10 296 -50 337 -34 33 -72 36 -117 8z m117 -332 c-1 -82 -29 -148 -63 -148
-31 0 -46 18 -54 63 -11 70 37 147 93 147 23 0 24 -3 24 -62z"/>
<path d="M3287 4334 c-84 -84 -103 -369 -32 -490 28 -48 70 -69 121 -61 49 8
64 23 64 64 0 30 -3 34 -17 28 -38 -17 -83 -17 -108 -1 -25 17 -55 96 -55 148
l0 28 101 0 102 0 -5 83 c-7 103 -24 161 -59 198 -35 37 -77 39 -112 3z m82
-63 c22 -22 41 -80 41 -123 l0 -28 -76 0 -76 0 6 38 c12 65 27 102 49 117 28
19 33 19 56 -4z"/>
<path d="M3555 4336 c-40 -40 -56 -131 -35 -206 6 -20 33 -59 65 -92 47 -49
55 -62 55 -95 0 -72 -56 -108 -102 -66 -22 20 -24 18 -32 -29 -6 -34 -4 -38
23 -53 84 -43 149 10 158 130 7 86 -9 130 -73 192 -44 42 -54 57 -54 85 0 18
7 44 16 56 16 23 58 30 69 12 12 -19 22 -10 29 23 5 26 2 35 -15 50 -30 24
-75 22 -104 -7z"/>
<path d="M4173 4338 c-11 -13 -25 -31 -30 -42 -9 -16 -11 -14 -17 18 -5 27
-12 36 -26 36 -19 0 -20 -9 -20 -280 l0 -280 25 0 25 0 0 183 c0 197 8 246 46
284 23 23 27 24 47 10 38 -25 46 -70 46 -279 l1 -198 25 0 25 0 0 213 c0 230
-9 288 -51 333 -28 30 -69 31 -96 2z"/>
<path d="M4467 4334 c-84 -84 -103 -369 -32 -490 28 -48 70 -69 121 -61 49 8
64 23 64 64 0 30 -3 34 -17 28 -38 -17 -83 -17 -108 -1 -25 17 -55 96 -55 148
l0 28 101 0 102 0 -5 83 c-7 103 -24 161 -59 198 -35 37 -77 39 -112 3z m82
-63 c22 -22 41 -80 41 -123 l0 -28 -76 0 -76 0 6 38 c12 65 27 102 49 117 28
19 33 19 56 -4z"/>
<path d="M3950 4070 l0 -280 25 0 25 0 0 280 0 280 -25 0 -25 0 0 -280z"/>
<path d="M5627 3235 c3 -55 9 -104 13 -108 8 -9 3 63 -10 153 -6 39 -7 26 -3
-45z"/>
<path d="M2870 2820 l0 -410 25 0 25 0 0 410 0 410 -25 0 -25 0 0 -410z"/>
<path d="M3010 2820 l0 -410 25 0 25 0 0 410 0 410 -25 0 -25 0 0 -410z"/>
<path d="M3293 3193 l-23 -4 0 -390 0 -389 26 -6 c41 -10 124 2 152 23 43 31
66 88 70 176 5 89 -9 151 -43 193 l-23 29 25 43 c49 84 41 230 -16 294 -25 28
-35 32 -87 34 -32 1 -69 0 -81 -3z m124 -88 c28 -20 47 -87 39 -138 -10 -62
-32 -94 -71 -107 -63 -21 -65 -16 -65 130 l0 130 38 0 c21 0 47 -7 59 -15z
m-12 -335 c54 -20 83 -148 51 -224 -18 -44 -51 -66 -98 -66 l-38 0 0 150 0
150 29 0 c16 0 41 -4 56 -10z"/>
<path d="M2224 3153 c3 -21 24 -182 46 -358 53 -417 47 -387 78 -383 29 3 26
-10 86 443 13 101 26 169 29 155 3 -14 20 -154 38 -312 l33 -288 28 0 c15 0
28 1 28 3 0 2 25 176 55 387 30 211 55 385 55 387 0 2 -11 3 -24 3 -15 0 -27
-7 -30 -17 -2 -10 -22 -153 -43 -318 -34 -266 -39 -294 -45 -245 -9 64 -68
564 -68 573 0 4 -13 7 -28 7 l-28 0 -37 -287 c-21 -159 -37 -298 -37 -310 0
-13 -4 -23 -10 -23 -5 0 -10 19 -11 43 0 23 -15 161 -32 307 l-32 265 -29 3
c-27 3 -28 3 -22 -35z"/>
<path d="M2741 3176 c-7 -8 -11 -34 -9 -58 2 -33 7 -44 22 -46 23 -5 36 14 36
51 0 31 -16 67 -29 67 -5 0 -14 -6 -20 -14z"/>
<path d="M4000 2800 l0 -390 25 0 25 0 0 175 0 175 75 0 75 0 0 40 0 40 -75 0
-76 0 3 133 3 132 78 3 77 3 0 39 0 40 -105 0 -105 0 0 -390z"/>
<path d="M5641 3065 c0 -27 3 -56 8 -63 5 -8 6 8 4 40 -6 73 -11 83 -12 23z"/>
<path d="M3647 2954 c-84 -84 -103 -369 -32 -490 28 -48 70 -69 121 -61 49 8
64 23 64 64 0 30 -3 34 -17 28 -38 -17 -83 -17 -108 -1 -25 17 -55 96 -55 148
l0 28 101 0 102 0 -5 83 c-7 103 -24 161 -59 198 -35 37 -77 39 -112 3z m82
-63 c22 -22 41 -80 41 -123 l0 -28 -76 0 -76 0 6 38 c12 65 27 102 49 117 28
19 33 19 56 -4z"/>
<path d="M4360 2960 c-11 -11 -22 -31 -26 -45 -9 -34 -24 -21 -24 21 0 27 -4
34 -20 34 -20 0 -20 -7 -20 -280 l0 -280 24 0 24 0 4 193 c3 168 6 197 23 232
13 26 28 41 43 43 19 3 22 9 22 53 0 55 -15 64 -50 29z"/>
<path d="M4517 2954 c-84 -84 -103 -369 -32 -490 28 -48 70 -69 121 -61 49 8
64 23 64 64 0 30 -3 34 -17 28 -38 -17 -83 -17 -108 -1 -25 17 -55 96 -55 148
l0 28 101 0 102 0 -5 83 c-7 103 -24 161 -59 198 -35 37 -77 39 -112 3z m82
-63 c22 -22 41 -80 41 -123 l0 -28 -76 0 -76 0 6 38 c12 65 27 102 49 117 28
19 33 19 56 -4z"/>
<path d="M4807 2954 c-84 -84 -103 -369 -32 -490 28 -48 70 -69 121 -61 49 8
64 23 64 64 0 30 -3 34 -17 28 -38 -17 -83 -17 -108 -1 -25 17 -55 96 -55 148
l0 28 101 0 102 0 -5 83 c-7 103 -24 161 -59 198 -35 37 -77 39 -112 3z m82
-63 c22 -22 41 -80 41 -123 l0 -28 -76 0 -76 0 6 38 c12 65 27 102 49 117 28
19 33 19 56 -4z"/>
<path d="M5651 2930 c0 -30 3 -61 8 -68 4 -7 6 13 4 45 -6 79 -11 89 -12 23z"/>
<path d="M2730 2690 l0 -280 25 0 25 0 0 280 0 280 -25 0 -25 0 0 -280z"/>
<path d="M5661 2775 c0 -38 4 -79 8 -90 5 -11 6 16 4 60 -6 104 -11 119 -12
30z"/>
<path d="M5672 2565 c0 -49 3 -99 7 -109 4 -10 6 23 4 75 -5 127 -11 144 -11
34z"/>
<path d="M5682 2270 c0 -80 3 -167 7 -195 4 -27 5 33 3 135 -4 225 -10 259
-10 60z"/>
<path d="M5694 1705 c0 -121 2 -169 3 -107 2 62 2 161 0 220 -1 59 -3 8 -3
-113z"/>
<path d="M20 1540 c-1 -25 -3 -56 -6 -70 -7 -49 -12 -546 -5 -600 l7 -55 13
85 c7 47 15 96 17 110 3 14 7 115 11 226 4 146 3 203 -6 208 -6 4 -12 24 -12
44 -1 20 -5 51 -9 67 -7 28 -8 27 -10 -15z"/>
<path d="M5686 1294 c-3 -43 -5 -158 -4 -258 l1 -181 7 255 c4 140 6 256 5
258 -1 1 -5 -32 -9 -74z"/>
<path d="M100 777 c0 -20 4 -38 9 -42 6 -3 7 10 4 32 -8 50 -13 55 -13 10z"/>
<path d="M206 776 c-7 -36 -20 -52 -48 -57 -13 -3 -7 -10 22 -27 l40 -23 0 71
c0 38 -2 70 -4 70 -2 0 -7 -15 -10 -34z"/>
<path d="M5676 764 c-3 -26 -5 -110 -4 -188 l1 -141 7 185 c4 102 6 186 5 188
-1 1 -5 -18 -9 -44z"/>
<path d="M108 603 c22 -27 56 -64 76 -82 l36 -35 0 32 c0 28 -9 38 -67 82 -38
27 -72 50 -76 50 -5 0 9 -21 31 -47z"/>
<path d="M1770 286 c0 -2 15 -6 34 -8 19 -2 32 0 30 4 -5 8 -64 12 -64 4z"/>
<path d="M1850 276 c0 -2 16 -6 35 -8 19 -2 35 0 35 4 0 4 -16 8 -35 8 -19 0
-35 -2 -35 -4z"/>
<path d="M1948 263 c12 -2 30 -2 40 0 9 3 -1 5 -23 4 -22 0 -30 -2 -17 -4z"/>
<path d="M2028 253 c12 -2 30 -2 40 0 9 3 -1 5 -23 4 -22 0 -30 -2 -17 -4z"/>
<path d="M2108 243 c12 -2 30 -2 40 0 9 3 -1 5 -23 4 -22 0 -30 -2 -17 -4z"/>
<path d="M2193 233 c9 -2 25 -2 35 0 9 3 1 5 -18 5 -19 0 -27 -2 -17 -5z"/>
<path d="M2260 226 c0 -2 15 -6 34 -8 19 -2 32 0 30 4 -5 8 -64 12 -64 4z"/>
<path d="M2358 213 c12 -2 30 -2 40 0 9 3 -1 5 -23 4 -22 0 -30 -2 -17 -4z"/>
<path d="M2438 203 c12 -2 30 -2 40 0 9 3 -1 5 -23 4 -22 0 -30 -2 -17 -4z"/>
<path d="M2518 193 c12 -2 30 -2 40 0 9 3 -1 5 -23 4 -22 0 -30 -2 -17 -4z"/>
<path d="M2598 183 c12 -2 30 -2 40 0 9 3 -1 5 -23 4 -22 0 -30 -2 -17 -4z"/>
<path d="M2670 176 c0 -2 15 -6 34 -8 19 -2 32 0 30 4 -5 8 -64 12 -64 4z"/>
<path d="M2750 166 c0 -2 16 -6 35 -8 19 -2 35 0 35 4 0 4 -16 8 -35 8 -19 0
-35 -2 -35 -4z"/>
<path d="M2848 153 c12 -2 30 -2 40 0 9 3 -1 5 -23 4 -22 0 -30 -2 -17 -4z"/>
<path d="M2928 143 c12 -2 30 -2 40 0 9 3 -1 5 -23 4 -22 0 -30 -2 -17 -4z"/>
<path d="M3008 133 c12 -2 30 -2 40 0 9 3 -1 5 -23 4 -22 0 -30 -2 -17 -4z"/>
<path d="M3093 123 c9 -2 25 -2 35 0 9 3 1 5 -18 5 -19 0 -27 -2 -17 -5z"/>
<path d="M3160 116 c0 -2 15 -6 34 -8 19 -2 32 0 30 4 -5 8 -64 12 -64 4z"/>
<path d="M3258 103 c12 -2 30 -2 40 0 9 3 -1 5 -23 4 -22 0 -30 -2 -17 -4z"/>
<path d="M5120 89 c-36 -10 -49 -16 -29 -14 41 6 131 33 109 33 -8 0 -44 -8
-80 -19z"/>
<path d="M3338 93 c12 -2 30 -2 40 0 9 3 -1 5 -23 4 -22 0 -30 -2 -17 -4z"/>
<path d="M3418 83 c12 -2 30 -2 40 0 9 3 -1 5 -23 4 -22 0 -30 -2 -17 -4z"/>
<path d="M3480 76 c0 -2 18 -6 39 -8 22 -2 37 0 35 4 -5 8 -74 11 -74 4z"/>
<path d="M3588 63 c12 -2 30 -2 40 0 9 3 -1 5 -23 4 -22 0 -30 -2 -17 -4z"/>
<path d="M4985 60 c-27 -7 -27 -8 -5 -8 14 0 36 4 50 8 20 6 21 8 5 8 -11 0
-33 -4 -50 -8z"/>
<path d="M3678 53 c12 -2 30 -2 40 0 9 3 -1 5 -23 4 -22 0 -30 -2 -17 -4z"/>
<path d="M3768 43 c12 -2 32 -2 45 0 12 2 2 4 -23 4 -25 0 -35 -2 -22 -4z"/>
<path d="M4913 43 c9 -2 23 -2 30 0 6 3 -1 5 -18 5 -16 0 -22 -2 -12 -5z"/>
<path d="M3855 35 c23 -8 83 -10 79 -3 -3 4 -24 8 -47 7 -23 0 -37 -2 -32 -4z"/>
<path d="M4833 33 c9 -2 25 -2 35 0 9 3 1 5 -18 5 -19 0 -27 -2 -17 -5z"/>
<path d="M3970 24 c35 -7 98 -9 94 -2 -3 5 -29 7 -57 7 -29 -1 -45 -3 -37 -5z"/>
<path d="M4720 22 c0 -4 17 -6 38 -4 58 5 62 10 10 11 -27 1 -48 -3 -48 -7z"/>
<path d="M4110 14 c35 -7 183 -10 165 -3 -11 4 -56 7 -100 7 -44 0 -73 -2 -65
-4z"/>
<path d="M4553 12 c-7 -4 18 -6 55 -4 96 5 108 10 27 11 -38 0 -76 -3 -82 -7z"/>
<path d="M4378 3 c17 -2 47 -2 65 0 17 2 3 4 -33 4 -36 0 -50 -2 -32 -4z"/>
</g>
</svg>
